<?xml version="1.0" encoding="UTF-8" standalone="no"?>
<!DOCTYPE svg PUBLIC "-//W3C//DTD SVG 1.1//EN"
 "http://www.w3.org/Graphics/SVG/1.1/DTD/svg11.dtd">
<!-- Generated by graphviz version 2.40.1 (20161225.0304)
 -->
<!-- Title: dependencies Pages: 1 -->
<svg width="1226pt" height="284pt"
 viewBox="0.00 0.00 1226.00 284.00" xmlns="http://www.w3.org/2000/svg" xmlns:xlink="http://www.w3.org/1999/xlink">
<g id="graph0" class="graph" transform="scale(1 1) rotate(0) translate(4 280)">
<title>dependencies</title>
<polygon fill="#ffffff" stroke="transparent" points="-4,4 -4,-280 1222,-280 1222,4 -4,4"/>
<text text-anchor="start" x="588.0091" y="-42.4" font-family="sans-serif" font-weight="bold" font-size="14.00" fill="#000000">Legend</text>
<polygon fill="#ffffb3" stroke="transparent" points="375,-10 375,-30 395,-30 395,-10 375,-10"/>
<text text-anchor="start" x="398.629" y="-15.4" font-family="sans-serif" font-size="14.00" fill="#000000"> &#160;Declarations</text>
<polygon fill="#8dd3c7" stroke="transparent" points="488,-10 488,-30 508,-30 508,-10 488,-10"/>
<text text-anchor="start" x="511.7251" y="-15.4" font-family="sans-serif" font-size="14.00" fill="#000000"> &#160;Module</text>
<polygon fill="#80b1d3" stroke="transparent" points="574,-10 574,-30 594,-30 594,-10 574,-10"/>
<text text-anchor="start" x="597.7812" y="-15.4" font-family="sans-serif" font-size="14.00" fill="#000000"> &#160;Bootstrap</text>
<polygon fill="#fdb462" stroke="transparent" points="671,-10 671,-30 691,-30 691,-10 671,-10"/>
<text text-anchor="start" x="694.6732" y="-15.4" font-family="sans-serif" font-size="14.00" fill="#000000"> &#160;Providers</text>
<polygon fill="#fb8072" stroke="transparent" points="767,-10 767,-30 787,-30 787,-10 767,-10"/>
<text text-anchor="start" x="790.7258" y="-15.4" font-family="sans-serif" font-size="14.00" fill="#000000"> &#160;Exports</text>
<g id="clust1" class="cluster">
<title>cluster_AppModule</title>
<polygon fill="none" stroke="#000000" stroke-dasharray="1,5" points="8,-70 8,-268 1210,-268 1210,-70 8,-70"/>
</g>
<g id="clust2" class="cluster">
<title>cluster_AppModule_declarations</title>
<polygon fill="none" stroke="#000000" points="1080,-78 1080,-130 1202,-130 1202,-78 1080,-78"/>
</g>
<g id="clust4" class="cluster">
<title>cluster_AppModule_imports</title>
<polygon fill="none" stroke="#000000" points="16,-78 16,-130 1072,-130 1072,-78 16,-78"/>
</g>
<g id="clust6" class="cluster">
<title>cluster_AppModule_bootstrap</title>
<polygon fill="none" stroke="#000000" points="534,-208 534,-260 658,-260 658,-208 534,-208"/>
</g>
<!-- AppComponent -->
<g id="node1" class="node">
<title>AppComponent</title>
<polygon fill="#ffffb3" stroke="#000000" points="1193.9399,-122 1088.0601,-122 1088.0601,-86 1193.9399,-86 1193.9399,-122"/>
<text text-anchor="middle" x="1141" y="-99.8" font-family="Times,serif" font-size="14.00" fill="#000000">AppComponent</text>
</g>
<!-- AppModule -->
<g id="node2" class="node">
<title>AppModule</title>
<polygon fill="#8dd3c7" stroke="#000000" points="637.6571,-187 634.6571,-191 613.6571,-191 610.6571,-187 554.3429,-187 554.3429,-151 637.6571,-151 637.6571,-187"/>
<text text-anchor="middle" x="596" y="-164.8" font-family="Times,serif" font-size="14.00" fill="#000000">AppModule</text>
</g>
<!-- AppComponent&#45;&gt;AppModule -->
<g id="edge1" class="edge">
<title>AppComponent&#45;&gt;AppModule</title>
<path fill="none" stroke="#000000" d="M1141,-122.0109C1141,-144.4852 1141,-180 1141,-180 1141,-180 647.8603,-180 647.8603,-180"/>
<polygon fill="#000000" stroke="#000000" points="647.8603,-176.5001 637.8603,-180 647.8603,-183.5001 647.8603,-176.5001"/>
</g>
<!-- AppComponent  -->
<g id="node12" class="node">
<title>AppComponent </title>
<polygon fill="#80b1d3" stroke="#000000" points="650.439,-252 541.561,-252 541.561,-216 650.439,-216 650.439,-252"/>
<text text-anchor="middle" x="596" y="-229.8" font-family="Times,serif" font-size="14.00" fill="#000000">AppComponent </text>
</g>
<!-- AppModule&#45;&gt;AppComponent  -->
<g id="edge11" class="edge">
<title>AppModule&#45;&gt;AppComponent </title>
<path fill="none" stroke="#000000" stroke-dasharray="1,5" d="M596,-187.1061C596,-187.1061 596,-205.991 596,-205.991"/>
<polygon fill="#000000" stroke="#000000" points="592.5001,-205.9909 596,-215.991 599.5001,-205.991 592.5001,-205.9909"/>
</g>
<!-- AppRoutingModule -->
<g id="node3" class="node">
<title>AppRoutingModule</title>
<polygon fill="#8dd3c7" stroke="#000000" points="1064.2744,-122 1061.2744,-126 1040.2744,-126 1037.2744,-122 935.7256,-122 935.7256,-86 1064.2744,-86 1064.2744,-122"/>
<text text-anchor="middle" x="1000" y="-99.8" font-family="Times,serif" font-size="14.00" fill="#000000">AppRoutingModule</text>
</g>
<!-- AppRoutingModule&#45;&gt;AppModule -->
<g id="edge2" class="edge">
<title>AppRoutingModule&#45;&gt;AppModule</title>
<path fill="none" stroke="#000000" d="M1000,-122.1289C1000,-142.5724 1000,-173 1000,-173 1000,-173 647.7134,-173 647.7134,-173"/>
<polygon fill="#000000" stroke="#000000" points="647.7135,-169.5001 637.7134,-173 647.7134,-176.5001 647.7135,-169.5001"/>
</g>
<!-- ClientsModule -->
<g id="node4" class="node">
<title>ClientsModule</title>
<polygon fill="#8dd3c7" stroke="#000000" points="917.7176,-122 914.7176,-126 893.7176,-126 890.7176,-122 818.2824,-122 818.2824,-86 917.7176,-86 917.7176,-122"/>
<text text-anchor="middle" x="868" y="-99.8" font-family="Times,serif" font-size="14.00" fill="#000000">ClientsModule</text>
</g>
<!-- ClientsModule&#45;&gt;AppModule -->
<g id="edge3" class="edge">
<title>ClientsModule&#45;&gt;AppModule</title>
<path fill="none" stroke="#000000" d="M868,-122.2667C868,-140.5552 868,-166 868,-166 868,-166 647.9039,-166 647.9039,-166"/>
<polygon fill="#000000" stroke="#000000" points="647.9039,-162.5001 637.9039,-166 647.9039,-169.5001 647.9039,-162.5001"/>
</g>
<!-- CoreModule -->
<g id="node5" class="node">
<title>CoreModule</title>
<polygon fill="#8dd3c7" stroke="#000000" points="800.2619,-122 797.2619,-126 776.2619,-126 773.2619,-122 713.7381,-122 713.7381,-86 800.2619,-86 800.2619,-122"/>
<text text-anchor="middle" x="757" y="-99.8" font-family="Times,serif" font-size="14.00" fill="#000000">CoreModule</text>
</g>
<!-- CoreModule&#45;&gt;AppModule -->
<g id="edge4" class="edge">
<title>CoreModule&#45;&gt;AppModule</title>
<path fill="none" stroke="#000000" d="M757,-122.0091C757,-138.0494 757,-159 757,-159 757,-159 647.8806,-159 647.8806,-159"/>
<polygon fill="#000000" stroke="#000000" points="647.8806,-155.5001 637.8806,-159 647.8805,-162.5001 647.8806,-155.5001"/>
</g>
<!-- IconsModule -->
<g id="node6" class="node">
<title>IconsModule</title>
<polygon fill="#8dd3c7" stroke="#000000" points="695.8697,-122 692.8697,-126 671.8697,-126 668.8697,-122 606.1303,-122 606.1303,-86 695.8697,-86 695.8697,-122"/>
<text text-anchor="middle" x="651" y="-99.8" font-family="Times,serif" font-size="14.00" fill="#000000">IconsModule</text>
</g>
<!-- IconsModule&#45;&gt;AppModule -->
<g id="edge5" class="edge">
<title>IconsModule&#45;&gt;AppModule</title>
<path fill="none" stroke="#000000" d="M621.9467,-122.1061C621.9467,-122.1061 621.9467,-140.991 621.9467,-140.991"/>
<polygon fill="#000000" stroke="#000000" points="618.4468,-140.9909 621.9467,-150.991 625.4468,-140.991 618.4468,-140.9909"/>
</g>
<!-- LoginModule -->
<g id="node7" class="node">
<title>LoginModule</title>
<polygon fill="#8dd3c7" stroke="#000000" points="588.493,-122 585.493,-126 564.493,-126 561.493,-122 495.507,-122 495.507,-86 588.493,-86 588.493,-122"/>
<text text-anchor="middle" x="542" y="-99.8" font-family="Times,serif" font-size="14.00" fill="#000000">LoginModule</text>
</g>
<!-- LoginModule&#45;&gt;AppModule -->
<g id="edge6" class="edge">
<title>LoginModule&#45;&gt;AppModule</title>
<path fill="none" stroke="#000000" d="M571.3342,-122.1061C571.3342,-122.1061 571.3342,-140.991 571.3342,-140.991"/>
<polygon fill="#000000" stroke="#000000" points="567.8342,-140.9909 571.3342,-150.991 574.8342,-140.991 567.8342,-140.9909"/>
</g>
<!-- OrdersModule -->
<g id="node8" class="node">
<title>OrdersModule</title>
<polygon fill="#8dd3c7" stroke="#000000" points="477.6375,-122 474.6375,-126 453.6375,-126 450.6375,-122 380.3625,-122 380.3625,-86 477.6375,-86 477.6375,-122"/>
<text text-anchor="middle" x="429" y="-99.8" font-family="Times,serif" font-size="14.00" fill="#000000">OrdersModule</text>
</g>
<!-- OrdersModule&#45;&gt;AppModule -->
<g id="edge7" class="edge">
<title>OrdersModule&#45;&gt;AppModule</title>
<path fill="none" stroke="#000000" d="M429,-122.0091C429,-138.0494 429,-159 429,-159 429,-159 544.2896,-159 544.2896,-159"/>
<polygon fill="#000000" stroke="#000000" points="544.2897,-162.5001 554.2896,-159 544.2896,-155.5001 544.2897,-162.5001"/>
</g>
<!-- PageNotFoundModule -->
<g id="node9" class="node">
<title>PageNotFoundModule</title>
<polygon fill="#8dd3c7" stroke="#000000" points="361.5421,-122 358.5421,-126 337.5421,-126 334.5421,-122 218.4579,-122 218.4579,-86 361.5421,-86 361.5421,-122"/>
<text text-anchor="middle" x="290" y="-99.8" font-family="Times,serif" font-size="14.00" fill="#000000">PageNotFoundModule</text>
</g>
<!-- PageNotFoundModule&#45;&gt;AppModule -->
<g id="edge8" class="edge">
<title>PageNotFoundModule&#45;&gt;AppModule</title>
<path fill="none" stroke="#000000" d="M290,-122.2667C290,-140.5552 290,-166 290,-166 290,-166 544.0936,-166 544.0936,-166"/>
<polygon fill="#000000" stroke="#000000" points="544.0937,-169.5001 554.0936,-166 544.0936,-162.5001 544.0937,-169.5001"/>
</g>
<!-- TextModule -->
<g id="node10" class="node">
<title>TextModule</title>
<polygon fill="#8dd3c7" stroke="#000000" points="200.7079,-122 197.7079,-126 176.7079,-126 173.7079,-122 115.2921,-122 115.2921,-86 200.7079,-86 200.7079,-122"/>
<text text-anchor="middle" x="158" y="-99.8" font-family="Times,serif" font-size="14.00" fill="#000000">TextModule</text>
</g>
<!-- TextModule&#45;&gt;AppModule -->
<g id="edge9" class="edge">
<title>TextModule&#45;&gt;AppModule</title>
<path fill="none" stroke="#000000" d="M158,-122.1289C158,-142.5724 158,-173 158,-173 158,-173 544.0027,-173 544.0027,-173"/>
<polygon fill="#000000" stroke="#000000" points="544.0028,-176.5001 554.0027,-173 544.0027,-169.5001 544.0028,-176.5001"/>
</g>
<!-- UiModule -->
<g id="node11" class="node">
<title>UiModule</title>
<polygon fill="#8dd3c7" stroke="#000000" points="97.5484,-122 94.5484,-126 73.5484,-126 70.5484,-122 24.4516,-122 24.4516,-86 97.5484,-86 97.5484,-122"/>
<text text-anchor="middle" x="61" y="-99.8" font-family="Times,serif" font-size="14.00" fill="#000000">UiModule</text>
</g>
<!-- UiModule&#45;&gt;AppModule -->
<g id="edge10" class="edge">
<title>UiModule&#45;&gt;AppModule</title>
<path fill="none" stroke="#000000" d="M61,-122.0109C61,-144.4852 61,-180 61,-180 61,-180 544.0194,-180 544.0194,-180"/>
<polygon fill="#000000" stroke="#000000" points="544.0195,-183.5001 554.0194,-180 544.0194,-176.5001 544.0195,-183.5001"/>
</g>
</g>
</svg>
