<?xml version="1.0" encoding="UTF-8" standalone="no"?>
<!DOCTYPE svg PUBLIC "-//W3C//DTD SVG 1.1//EN"
 "http://www.w3.org/Graphics/SVG/1.1/DTD/svg11.dtd">
<!-- Generated by graphviz version 2.40.1 (20161225.0304)
 -->
<!-- Title: dependencies Pages: 1 -->
<svg width="832pt" height="284pt"
 viewBox="0.00 0.00 832.00 284.00" xmlns="http://www.w3.org/2000/svg" xmlns:xlink="http://www.w3.org/1999/xlink">
<g id="graph0" class="graph" transform="scale(1 1) rotate(0) translate(4 280)">
<title>dependencies</title>
<polygon fill="#ffffff" stroke="transparent" points="-4,4 -4,-280 828,-280 828,4 -4,4"/>
<text text-anchor="start" x="391.0091" y="-42.4" font-family="sans-serif" font-weight="bold" font-size="14.00" fill="#000000">Legend</text>
<polygon fill="#ffffb3" stroke="transparent" points="178,-10 178,-30 198,-30 198,-10 178,-10"/>
<text text-anchor="start" x="201.629" y="-15.4" font-family="sans-serif" font-size="14.00" fill="#000000"> &#160;Declarations</text>
<polygon fill="#8dd3c7" stroke="transparent" points="291,-10 291,-30 311,-30 311,-10 291,-10"/>
<text text-anchor="start" x="314.7251" y="-15.4" font-family="sans-serif" font-size="14.00" fill="#000000"> &#160;Module</text>
<polygon fill="#80b1d3" stroke="transparent" points="377,-10 377,-30 397,-30 397,-10 377,-10"/>
<text text-anchor="start" x="400.7812" y="-15.4" font-family="sans-serif" font-size="14.00" fill="#000000"> &#160;Bootstrap</text>
<polygon fill="#fdb462" stroke="transparent" points="474,-10 474,-30 494,-30 494,-10 474,-10"/>
<text text-anchor="start" x="497.6732" y="-15.4" font-family="sans-serif" font-size="14.00" fill="#000000"> &#160;Providers</text>
<polygon fill="#fb8072" stroke="transparent" points="570,-10 570,-30 590,-30 590,-10 570,-10"/>
<text text-anchor="start" x="593.7258" y="-15.4" font-family="sans-serif" font-size="14.00" fill="#000000"> &#160;Exports</text>
<g id="clust1" class="cluster">
<title>cluster_AppModule</title>
<polygon fill="none" stroke="#000000" stroke-dasharray="1,5" points="8,-70 8,-268 816,-268 816,-70 8,-70"/>
</g>
<g id="clust2" class="cluster">
<title>cluster_AppModule_declarations</title>
<polygon fill="none" stroke="#000000" points="686,-78 686,-130 808,-130 808,-78 686,-78"/>
</g>
<g id="clust4" class="cluster">
<title>cluster_AppModule_imports</title>
<polygon fill="none" stroke="#000000" points="16,-78 16,-130 678,-130 678,-78 16,-78"/>
</g>
<g id="clust6" class="cluster">
<title>cluster_AppModule_bootstrap</title>
<polygon fill="none" stroke="#000000" points="312,-208 312,-260 436,-260 436,-208 312,-208"/>
</g>
<!-- AppComponent -->
<g id="node1" class="node">
<title>AppComponent</title>
<polygon fill="#ffffb3" stroke="#000000" points="799.9399,-122 694.0601,-122 694.0601,-86 799.9399,-86 799.9399,-122"/>
<text text-anchor="middle" x="747" y="-99.8" font-family="Times,serif" font-size="14.00" fill="#000000">AppComponent</text>
</g>
<!-- AppModule -->
<g id="node2" class="node">
<title>AppModule</title>
<polygon fill="#8dd3c7" stroke="#000000" points="415.6571,-187 412.6571,-191 391.6571,-191 388.6571,-187 332.3429,-187 332.3429,-151 415.6571,-151 415.6571,-187"/>
<text text-anchor="middle" x="374" y="-164.8" font-family="Times,serif" font-size="14.00" fill="#000000">AppModule</text>
</g>
<!-- AppComponent&#45;&gt;AppModule -->
<g id="edge1" class="edge">
<title>AppComponent&#45;&gt;AppModule</title>
<path fill="none" stroke="#000000" d="M747,-122.2921C747,-144.2057 747,-178 747,-178 747,-178 425.7021,-178 425.7021,-178"/>
<polygon fill="#000000" stroke="#000000" points="425.7021,-174.5001 415.7021,-178 425.7021,-181.5001 425.7021,-174.5001"/>
</g>
<!-- AppComponent  -->
<g id="node9" class="node">
<title>AppComponent </title>
<polygon fill="#80b1d3" stroke="#000000" points="428.439,-252 319.561,-252 319.561,-216 428.439,-216 428.439,-252"/>
<text text-anchor="middle" x="374" y="-229.8" font-family="Times,serif" font-size="14.00" fill="#000000">AppComponent </text>
</g>
<!-- AppModule&#45;&gt;AppComponent  -->
<g id="edge8" class="edge">
<title>AppModule&#45;&gt;AppComponent </title>
<path fill="none" stroke="#000000" stroke-dasharray="1,5" d="M374,-187.1061C374,-187.1061 374,-205.991 374,-205.991"/>
<polygon fill="#000000" stroke="#000000" points="370.5001,-205.9909 374,-215.991 377.5001,-205.991 370.5001,-205.9909"/>
</g>
<!-- AppRoutingModule -->
<g id="node3" class="node">
<title>AppRoutingModule</title>
<polygon fill="#8dd3c7" stroke="#000000" points="670.2744,-122 667.2744,-126 646.2744,-126 643.2744,-122 541.7256,-122 541.7256,-86 670.2744,-86 670.2744,-122"/>
<text text-anchor="middle" x="606" y="-99.8" font-family="Times,serif" font-size="14.00" fill="#000000">AppRoutingModule</text>
</g>
<!-- AppRoutingModule&#45;&gt;AppModule -->
<g id="edge2" class="edge">
<title>AppRoutingModule&#45;&gt;AppModule</title>
<path fill="none" stroke="#000000" d="M606,-122.1061C606,-141.3391 606,-169 606,-169 606,-169 425.7449,-169 425.7449,-169"/>
<polygon fill="#000000" stroke="#000000" points="425.7449,-165.5001 415.7449,-169 425.7449,-172.5001 425.7449,-165.5001"/>
</g>
<!-- CoreModule -->
<g id="node4" class="node">
<title>CoreModule</title>
<polygon fill="#8dd3c7" stroke="#000000" points="523.2619,-122 520.2619,-126 499.2619,-126 496.2619,-122 436.7381,-122 436.7381,-86 523.2619,-86 523.2619,-122"/>
<text text-anchor="middle" x="480" y="-99.8" font-family="Times,serif" font-size="14.00" fill="#000000">CoreModule</text>
</g>
<!-- CoreModule&#45;&gt;AppModule -->
<g id="edge3" class="edge">
<title>CoreModule&#45;&gt;AppModule</title>
<path fill="none" stroke="#000000" d="M480,-122.027C480,-138.3976 480,-160 480,-160 480,-160 425.894,-160 425.894,-160"/>
<polygon fill="#000000" stroke="#000000" points="425.894,-156.5001 415.894,-160 425.894,-163.5001 425.894,-156.5001"/>
</g>
<!-- IconsModule -->
<g id="node5" class="node">
<title>IconsModule</title>
<polygon fill="#8dd3c7" stroke="#000000" points="418.8697,-122 415.8697,-126 394.8697,-126 391.8697,-122 329.1303,-122 329.1303,-86 418.8697,-86 418.8697,-122"/>
<text text-anchor="middle" x="374" y="-99.8" font-family="Times,serif" font-size="14.00" fill="#000000">IconsModule</text>
</g>
<!-- IconsModule&#45;&gt;AppModule -->
<g id="edge4" class="edge">
<title>IconsModule&#45;&gt;AppModule</title>
<path fill="none" stroke="#000000" d="M374,-122.1061C374,-122.1061 374,-140.991 374,-140.991"/>
<polygon fill="#000000" stroke="#000000" points="370.5001,-140.9909 374,-150.991 377.5001,-140.991 370.5001,-140.9909"/>
</g>
<!-- LoginModule -->
<g id="node6" class="node">
<title>LoginModule</title>
<polygon fill="#8dd3c7" stroke="#000000" points="311.493,-122 308.493,-126 287.493,-126 284.493,-122 218.507,-122 218.507,-86 311.493,-86 311.493,-122"/>
<text text-anchor="middle" x="265" y="-99.8" font-family="Times,serif" font-size="14.00" fill="#000000">LoginModule</text>
</g>
<!-- LoginModule&#45;&gt;AppModule -->
<g id="edge5" class="edge">
<title>LoginModule&#45;&gt;AppModule</title>
<path fill="none" stroke="#000000" d="M265,-122.027C265,-138.3976 265,-160 265,-160 265,-160 322.1695,-160 322.1695,-160"/>
<polygon fill="#000000" stroke="#000000" points="322.1695,-163.5001 332.1695,-160 322.1695,-156.5001 322.1695,-163.5001"/>
</g>
<!-- TextModule -->
<g id="node7" class="node">
<title>TextModule</title>
<polygon fill="#8dd3c7" stroke="#000000" points="200.7079,-122 197.7079,-126 176.7079,-126 173.7079,-122 115.2921,-122 115.2921,-86 200.7079,-86 200.7079,-122"/>
<text text-anchor="middle" x="158" y="-99.8" font-family="Times,serif" font-size="14.00" fill="#000000">TextModule</text>
</g>
<!-- TextModule&#45;&gt;AppModule -->
<g id="edge6" class="edge">
<title>TextModule&#45;&gt;AppModule</title>
<path fill="none" stroke="#000000" d="M158,-122.1061C158,-141.3391 158,-169 158,-169 158,-169 322.0969,-169 322.0969,-169"/>
<polygon fill="#000000" stroke="#000000" points="322.0969,-172.5001 332.0969,-169 322.0969,-165.5001 322.0969,-172.5001"/>
</g>
<!-- UiModule -->
<g id="node8" class="node">
<title>UiModule</title>
<polygon fill="#8dd3c7" stroke="#000000" points="97.5484,-122 94.5484,-126 73.5484,-126 70.5484,-122 24.4516,-122 24.4516,-86 97.5484,-86 97.5484,-122"/>
<text text-anchor="middle" x="61" y="-99.8" font-family="Times,serif" font-size="14.00" fill="#000000">UiModule</text>
</g>
<!-- UiModule&#45;&gt;AppModule -->
<g id="edge7" class="edge">
<title>UiModule&#45;&gt;AppModule</title>
<path fill="none" stroke="#000000" d="M61,-122.2921C61,-144.2057 61,-178 61,-178 61,-178 322.1122,-178 322.1122,-178"/>
<polygon fill="#000000" stroke="#000000" points="322.1122,-181.5001 332.1122,-178 322.1122,-174.5001 322.1122,-181.5001"/>
</g>
</g>
</svg>
