<?xml version="1.0" encoding="UTF-8" standalone="no"?>
<!DOCTYPE svg PUBLIC "-//W3C//DTD SVG 1.1//EN"
 "http://www.w3.org/Graphics/SVG/1.1/DTD/svg11.dtd">
<!-- Generated by graphviz version 2.40.1 (20161225.0304)
 -->
<!-- Title: dependencies Pages: 1 -->
<svg width="2956pt" height="360pt"
 viewBox="0.00 0.00 2956.00 360.00" xmlns="http://www.w3.org/2000/svg" xmlns:xlink="http://www.w3.org/1999/xlink">
<g id="graph0" class="graph" transform="scale(1 1) rotate(0) translate(4 356)">
<title>dependencies</title>
<polygon fill="#ffffff" stroke="transparent" points="-4,4 -4,-356 2952,-356 2952,4 -4,4"/>
<text text-anchor="start" x="1453.0091" y="-42.4" font-family="sans-serif" font-weight="bold" font-size="14.00" fill="#000000">Legend</text>
<polygon fill="#ffffb3" stroke="transparent" points="1240,-10 1240,-30 1260,-30 1260,-10 1240,-10"/>
<text text-anchor="start" x="1263.629" y="-15.4" font-family="sans-serif" font-size="14.00" fill="#000000"> &#160;Declarations</text>
<polygon fill="#8dd3c7" stroke="transparent" points="1353,-10 1353,-30 1373,-30 1373,-10 1353,-10"/>
<text text-anchor="start" x="1376.7251" y="-15.4" font-family="sans-serif" font-size="14.00" fill="#000000"> &#160;Module</text>
<polygon fill="#80b1d3" stroke="transparent" points="1439,-10 1439,-30 1459,-30 1459,-10 1439,-10"/>
<text text-anchor="start" x="1462.7812" y="-15.4" font-family="sans-serif" font-size="14.00" fill="#000000"> &#160;Bootstrap</text>
<polygon fill="#fdb462" stroke="transparent" points="1536,-10 1536,-30 1556,-30 1556,-10 1536,-10"/>
<text text-anchor="start" x="1559.6732" y="-15.4" font-family="sans-serif" font-size="14.00" fill="#000000"> &#160;Providers</text>
<polygon fill="#fb8072" stroke="transparent" points="1632,-10 1632,-30 1652,-30 1652,-10 1632,-10"/>
<text text-anchor="start" x="1655.7258" y="-15.4" font-family="sans-serif" font-size="14.00" fill="#000000"> &#160;Exports</text>
<g id="clust1" class="cluster">
<title>cluster_AppModule</title>
<polygon fill="none" stroke="#000000" stroke-dasharray="1,5" points="390,-146 390,-344 1198,-344 1198,-146 390,-146"/>
</g>
<g id="clust2" class="cluster">
<title>cluster_AppModule_declarations</title>
<polygon fill="none" stroke="#000000" points="1068,-154 1068,-206 1190,-206 1190,-154 1068,-154"/>
</g>
<g id="clust4" class="cluster">
<title>cluster_AppModule_imports</title>
<polygon fill="none" stroke="#000000" points="398,-154 398,-206 1060,-206 1060,-154 398,-154"/>
</g>
<g id="clust6" class="cluster">
<title>cluster_AppModule_bootstrap</title>
<polygon fill="none" stroke="#000000" points="694,-284 694,-336 818,-336 818,-284 694,-284"/>
</g>
<g id="clust14" class="cluster">
<title>cluster_ClientsModule</title>
<polygon fill="none" stroke="#000000" stroke-dasharray="1,5" points="1206,-70 1206,-206 1863,-206 1863,-70 1206,-70"/>
</g>
<g id="clust15" class="cluster">
<title>cluster_ClientsModule_declarations</title>
<polygon fill="none" stroke="#000000" points="1382,-78 1382,-130 1855,-130 1855,-78 1382,-78"/>
</g>
<g id="clust19" class="cluster">
<title>cluster_ClientsModule_imports</title>
<polygon fill="none" stroke="#000000" points="1214,-78 1214,-130 1374,-130 1374,-78 1214,-78"/>
</g>
<g id="clust41" class="cluster">
<title>cluster_LoginModule</title>
<polygon fill="none" stroke="#000000" stroke-dasharray="1,5" points="664,-70 664,-138 972,-138 972,-70 664,-70"/>
</g>
<g id="clust42" class="cluster">
<title>cluster_LoginModule_declarations</title>
<polygon fill="none" stroke="#000000" points="834,-78 834,-130 964,-130 964,-78 834,-78"/>
</g>
<g id="clust44" class="cluster">
<title>cluster_LoginModule_imports</title>
<polygon fill="none" stroke="#000000" points="672,-78 672,-130 826,-130 826,-78 672,-78"/>
</g>
<g id="clust54" class="cluster">
<title>cluster_OrdersModule</title>
<polygon fill="none" stroke="#000000" stroke-dasharray="1,5" points="1871,-70 1871,-206 2522,-206 2522,-70 1871,-70"/>
</g>
<g id="clust55" class="cluster">
<title>cluster_OrdersModule_declarations</title>
<polygon fill="none" stroke="#000000" points="2045,-78 2045,-130 2514,-130 2514,-78 2045,-78"/>
</g>
<g id="clust59" class="cluster">
<title>cluster_OrdersModule_imports</title>
<polygon fill="none" stroke="#000000" points="1879,-78 1879,-130 2037,-130 2037,-78 1879,-78"/>
</g>
<g id="clust69" class="cluster">
<title>cluster_PageNotFoundModule</title>
<polygon fill="none" stroke="#000000" stroke-dasharray="1,5" points="2530,-70 2530,-206 2940,-206 2940,-70 2530,-70"/>
</g>
<g id="clust70" class="cluster">
<title>cluster_PageNotFoundModule_declarations</title>
<polygon fill="none" stroke="#000000" points="2750,-78 2750,-130 2932,-130 2932,-78 2750,-78"/>
</g>
<g id="clust72" class="cluster">
<title>cluster_PageNotFoundModule_imports</title>
<polygon fill="none" stroke="#000000" points="2538,-78 2538,-130 2742,-130 2742,-78 2538,-78"/>
</g>
<g id="clust100" class="cluster">
<title>cluster_UiModule</title>
<polygon fill="none" stroke="#000000" stroke-dasharray="1,5" points="8,-70 8,-138 656,-138 656,-70 8,-70"/>
</g>
<g id="clust101" class="cluster">
<title>cluster_UiModule_declarations</title>
<polygon fill="none" stroke="#000000" points="138,-78 138,-130 648,-130 648,-78 138,-78"/>
</g>
<g id="clust107" class="cluster">
<title>cluster_UiModule_exports</title>
<polygon fill="none" stroke="#000000" points="16,-78 16,-130 130,-130 130,-78 16,-78"/>
</g>
<!-- AppComponent -->
<g id="node1" class="node">
<title>AppComponent</title>
<polygon fill="#ffffb3" stroke="#000000" points="1181.9399,-198 1076.0601,-198 1076.0601,-162 1181.9399,-162 1181.9399,-198"/>
<text text-anchor="middle" x="1129" y="-175.8" font-family="Times,serif" font-size="14.00" fill="#000000">AppComponent</text>
</g>
<!-- AppModule -->
<g id="node2" class="node">
<title>AppModule</title>
<polygon fill="#8dd3c7" stroke="#000000" points="797.6571,-263 794.6571,-267 773.6571,-267 770.6571,-263 714.3429,-263 714.3429,-227 797.6571,-227 797.6571,-263"/>
<text text-anchor="middle" x="756" y="-240.8" font-family="Times,serif" font-size="14.00" fill="#000000">AppModule</text>
</g>
<!-- AppComponent&#45;&gt;AppModule -->
<g id="edge1" class="edge">
<title>AppComponent&#45;&gt;AppModule</title>
<path fill="none" stroke="#000000" d="M1129,-198.2921C1129,-220.2057 1129,-254 1129,-254 1129,-254 807.7021,-254 807.7021,-254"/>
<polygon fill="#000000" stroke="#000000" points="807.7021,-250.5001 797.7021,-254 807.7021,-257.5001 807.7021,-250.5001"/>
</g>
<!-- AppComponent  -->
<g id="node9" class="node">
<title>AppComponent </title>
<polygon fill="#80b1d3" stroke="#000000" points="810.439,-328 701.561,-328 701.561,-292 810.439,-292 810.439,-328"/>
<text text-anchor="middle" x="756" y="-305.8" font-family="Times,serif" font-size="14.00" fill="#000000">AppComponent </text>
</g>
<!-- AppModule&#45;&gt;AppComponent  -->
<g id="edge8" class="edge">
<title>AppModule&#45;&gt;AppComponent </title>
<path fill="none" stroke="#000000" stroke-dasharray="1,5" d="M756,-263.1061C756,-263.1061 756,-281.991 756,-281.991"/>
<polygon fill="#000000" stroke="#000000" points="752.5001,-281.9909 756,-291.991 759.5001,-281.991 752.5001,-281.9909"/>
</g>
<!-- AppRoutingModule -->
<g id="node3" class="node">
<title>AppRoutingModule</title>
<polygon fill="#8dd3c7" stroke="#000000" points="1052.2744,-198 1049.2744,-202 1028.2744,-202 1025.2744,-198 923.7256,-198 923.7256,-162 1052.2744,-162 1052.2744,-198"/>
<text text-anchor="middle" x="988" y="-175.8" font-family="Times,serif" font-size="14.00" fill="#000000">AppRoutingModule</text>
</g>
<!-- AppRoutingModule&#45;&gt;AppModule -->
<g id="edge2" class="edge">
<title>AppRoutingModule&#45;&gt;AppModule</title>
<path fill="none" stroke="#000000" d="M988,-198.1061C988,-217.3391 988,-245 988,-245 988,-245 807.7449,-245 807.7449,-245"/>
<polygon fill="#000000" stroke="#000000" points="807.7449,-241.5001 797.7449,-245 807.7449,-248.5001 807.7449,-241.5001"/>
</g>
<!-- CoreModule -->
<g id="node4" class="node">
<title>CoreModule</title>
<polygon fill="#8dd3c7" stroke="#000000" points="905.2619,-198 902.2619,-202 881.2619,-202 878.2619,-198 818.7381,-198 818.7381,-162 905.2619,-162 905.2619,-198"/>
<text text-anchor="middle" x="862" y="-175.8" font-family="Times,serif" font-size="14.00" fill="#000000">CoreModule</text>
</g>
<!-- CoreModule&#45;&gt;AppModule -->
<g id="edge3" class="edge">
<title>CoreModule&#45;&gt;AppModule</title>
<path fill="none" stroke="#000000" d="M862,-198.027C862,-214.3976 862,-236 862,-236 862,-236 807.894,-236 807.894,-236"/>
<polygon fill="#000000" stroke="#000000" points="807.894,-232.5001 797.894,-236 807.894,-239.5001 807.894,-232.5001"/>
</g>
<!-- IconsModule -->
<g id="node5" class="node">
<title>IconsModule</title>
<polygon fill="#8dd3c7" stroke="#000000" points="800.8697,-198 797.8697,-202 776.8697,-202 773.8697,-198 711.1303,-198 711.1303,-162 800.8697,-162 800.8697,-198"/>
<text text-anchor="middle" x="756" y="-175.8" font-family="Times,serif" font-size="14.00" fill="#000000">IconsModule</text>
</g>
<!-- IconsModule&#45;&gt;AppModule -->
<g id="edge4" class="edge">
<title>IconsModule&#45;&gt;AppModule</title>
<path fill="none" stroke="#000000" d="M756,-198.1061C756,-198.1061 756,-216.991 756,-216.991"/>
<polygon fill="#000000" stroke="#000000" points="752.5001,-216.9909 756,-226.991 759.5001,-216.991 752.5001,-216.9909"/>
</g>
<!-- LoginModule -->
<g id="node6" class="node">
<title>LoginModule</title>
<polygon fill="#8dd3c7" stroke="#000000" points="693.493,-198 690.493,-202 669.493,-202 666.493,-198 600.507,-198 600.507,-162 693.493,-162 693.493,-198"/>
<text text-anchor="middle" x="647" y="-175.8" font-family="Times,serif" font-size="14.00" fill="#000000">LoginModule</text>
</g>
<!-- LoginModule&#45;&gt;AppModule -->
<g id="edge5" class="edge">
<title>LoginModule&#45;&gt;AppModule</title>
<path fill="none" stroke="#000000" d="M647,-198.027C647,-214.3976 647,-236 647,-236 647,-236 704.1695,-236 704.1695,-236"/>
<polygon fill="#000000" stroke="#000000" points="704.1695,-239.5001 714.1695,-236 704.1695,-232.5001 704.1695,-239.5001"/>
</g>
<!-- TextModule -->
<g id="node7" class="node">
<title>TextModule</title>
<polygon fill="#8dd3c7" stroke="#000000" points="582.7079,-198 579.7079,-202 558.7079,-202 555.7079,-198 497.2921,-198 497.2921,-162 582.7079,-162 582.7079,-198"/>
<text text-anchor="middle" x="540" y="-175.8" font-family="Times,serif" font-size="14.00" fill="#000000">TextModule</text>
</g>
<!-- TextModule&#45;&gt;AppModule -->
<g id="edge6" class="edge">
<title>TextModule&#45;&gt;AppModule</title>
<path fill="none" stroke="#000000" d="M540,-198.1061C540,-217.3391 540,-245 540,-245 540,-245 704.0969,-245 704.0969,-245"/>
<polygon fill="#000000" stroke="#000000" points="704.0969,-248.5001 714.0969,-245 704.0969,-241.5001 704.0969,-248.5001"/>
</g>
<!-- UiModule -->
<g id="node8" class="node">
<title>UiModule</title>
<polygon fill="#8dd3c7" stroke="#000000" points="479.5484,-198 476.5484,-202 455.5484,-202 452.5484,-198 406.4516,-198 406.4516,-162 479.5484,-162 479.5484,-198"/>
<text text-anchor="middle" x="443" y="-175.8" font-family="Times,serif" font-size="14.00" fill="#000000">UiModule</text>
</g>
<!-- UiModule&#45;&gt;AppModule -->
<g id="edge7" class="edge">
<title>UiModule&#45;&gt;AppModule</title>
<path fill="none" stroke="#000000" d="M443,-198.2921C443,-220.2057 443,-254 443,-254 443,-254 704.1122,-254 704.1122,-254"/>
<polygon fill="#000000" stroke="#000000" points="704.1122,-257.5001 714.1122,-254 704.1122,-250.5001 704.1122,-257.5001"/>
</g>
<!-- UiComponent  -->
<g id="node29" class="node">
<title>UiComponent </title>
<polygon fill="#fb8072" stroke="#000000" points="122.3297,-122 23.6703,-122 23.6703,-86 122.3297,-86 122.3297,-122"/>
<text text-anchor="middle" x="73" y="-99.8" font-family="Times,serif" font-size="14.00" fill="#000000">UiComponent </text>
</g>
<!-- UiModule&#45;&gt;UiComponent  -->
<g id="edge25" class="edge">
<title>UiModule&#45;&gt;UiComponent </title>
<path fill="none" stroke="#000000" stroke-dasharray="5,2" d="M406.1703,-189C312.5831,-189 73,-189 73,-189 73,-189 73,-132.0263 73,-132.0263"/>
<polygon fill="#000000" stroke="#000000" points="76.5001,-132.0263 73,-122.0263 69.5001,-132.0263 76.5001,-132.0263"/>
</g>
<!-- AddClientComponent -->
<g id="node10" class="node">
<title>AddClientComponent</title>
<polygon fill="#ffffb3" stroke="#000000" points="1846.6624,-122 1707.3376,-122 1707.3376,-86 1846.6624,-86 1846.6624,-122"/>
<text text-anchor="middle" x="1777" y="-99.8" font-family="Times,serif" font-size="14.00" fill="#000000">AddClientComponent</text>
</g>
<!-- ClientsModule -->
<g id="node13" class="node">
<title>ClientsModule</title>
<polygon fill="#8dd3c7" stroke="#000000" points="1589.7176,-198 1586.7176,-202 1565.7176,-202 1562.7176,-198 1490.2824,-198 1490.2824,-162 1589.7176,-162 1589.7176,-198"/>
<text text-anchor="middle" x="1540" y="-175.8" font-family="Times,serif" font-size="14.00" fill="#000000">ClientsModule</text>
</g>
<!-- AddClientComponent&#45;&gt;ClientsModule -->
<g id="edge9" class="edge">
<title>AddClientComponent&#45;&gt;ClientsModule</title>
<path fill="none" stroke="#000000" d="M1777,-122.1985C1777,-146.3563 1777,-186 1777,-186 1777,-186 1599.683,-186 1599.683,-186"/>
<polygon fill="#000000" stroke="#000000" points="1599.683,-182.5001 1589.683,-186 1599.6829,-189.5001 1599.683,-182.5001"/>
</g>
<!-- EditClientComponent -->
<g id="node11" class="node">
<title>EditClientComponent</title>
<polygon fill="#ffffb3" stroke="#000000" points="1689.3892,-122 1550.6108,-122 1550.6108,-86 1689.3892,-86 1689.3892,-122"/>
<text text-anchor="middle" x="1620" y="-99.8" font-family="Times,serif" font-size="14.00" fill="#000000">EditClientComponent</text>
</g>
<!-- EditClientComponent&#45;&gt;ClientsModule -->
<g id="edge10" class="edge">
<title>EditClientComponent&#45;&gt;ClientsModule</title>
<path fill="none" stroke="#000000" d="M1570.0821,-122.0109C1570.0821,-122.0109 1570.0821,-151.855 1570.0821,-151.855"/>
<polygon fill="#000000" stroke="#000000" points="1566.5821,-151.8549 1570.0821,-161.855 1573.5821,-151.855 1566.5821,-151.8549"/>
</g>
<!-- ListClientsComponent -->
<g id="node12" class="node">
<title>ListClientsComponent</title>
<polygon fill="#ffffb3" stroke="#000000" points="1532.2786,-122 1389.7214,-122 1389.7214,-86 1532.2786,-86 1532.2786,-122"/>
<text text-anchor="middle" x="1461" y="-99.8" font-family="Times,serif" font-size="14.00" fill="#000000">ListClientsComponent</text>
</g>
<!-- ListClientsComponent&#45;&gt;ClientsModule -->
<g id="edge11" class="edge">
<title>ListClientsComponent&#45;&gt;ClientsModule</title>
<path fill="none" stroke="#000000" d="M1511.3903,-122.0109C1511.3903,-122.0109 1511.3903,-151.855 1511.3903,-151.855"/>
<polygon fill="#000000" stroke="#000000" points="1507.8903,-151.8549 1511.3903,-161.855 1514.8903,-151.855 1507.8903,-151.8549"/>
</g>
<!-- ClientsRoutingModule -->
<g id="node14" class="node">
<title>ClientsRoutingModule</title>
<polygon fill="#8dd3c7" stroke="#000000" points="1366.3356,-122 1363.3356,-126 1342.3356,-126 1339.3356,-122 1221.6644,-122 1221.6644,-86 1366.3356,-86 1366.3356,-122"/>
<text text-anchor="middle" x="1294" y="-99.8" font-family="Times,serif" font-size="14.00" fill="#000000">ClientsRoutingModule</text>
</g>
<!-- ClientsRoutingModule&#45;&gt;ClientsModule -->
<g id="edge12" class="edge">
<title>ClientsRoutingModule&#45;&gt;ClientsModule</title>
<path fill="none" stroke="#000000" d="M1294,-122.0109C1294,-144.4852 1294,-180 1294,-180 1294,-180 1480.2182,-180 1480.2182,-180"/>
<polygon fill="#000000" stroke="#000000" points="1480.2183,-183.5001 1490.2182,-180 1480.2182,-176.5001 1480.2183,-183.5001"/>
</g>
<!-- LoginComponent -->
<g id="node15" class="node">
<title>LoginComponent</title>
<polygon fill="#ffffb3" stroke="#000000" points="956.2758,-122 841.7242,-122 841.7242,-86 956.2758,-86 956.2758,-122"/>
<text text-anchor="middle" x="899" y="-99.8" font-family="Times,serif" font-size="14.00" fill="#000000">LoginComponent</text>
</g>
<!-- LoginComponent&#45;&gt;LoginModule -->
<g id="edge13" class="edge">
<title>LoginComponent&#45;&gt;LoginModule</title>
<path fill="none" stroke="#000000" d="M873.4965,-122.2434C873.4965,-129.4297 873.4965,-136 873.4965,-136 873.4965,-136 688.9792,-136 688.9792,-136 688.9792,-136 688.9792,-151.8495 688.9792,-151.8495"/>
<polygon fill="#000000" stroke="#000000" points="685.4793,-151.8494 688.9792,-161.8495 692.4793,-151.8495 685.4793,-151.8494"/>
</g>
<!-- LoginRoutingModule -->
<g id="node16" class="node">
<title>LoginRoutingModule</title>
<polygon fill="#8dd3c7" stroke="#000000" points="818.1108,-122 815.1108,-126 794.1108,-126 791.1108,-122 679.8892,-122 679.8892,-86 818.1108,-86 818.1108,-122"/>
<text text-anchor="middle" x="749" y="-99.8" font-family="Times,serif" font-size="14.00" fill="#000000">LoginRoutingModule</text>
</g>
<!-- LoginRoutingModule&#45;&gt;LoginModule -->
<g id="edge14" class="edge">
<title>LoginRoutingModule&#45;&gt;LoginModule</title>
<path fill="none" stroke="#000000" d="M684.4619,-122.0109C684.4619,-122.0109 684.4619,-151.855 684.4619,-151.855"/>
<polygon fill="#000000" stroke="#000000" points="680.962,-151.8549 684.4619,-161.855 687.962,-151.855 680.962,-151.8549"/>
</g>
<!-- AddOrderComponent -->
<g id="node17" class="node">
<title>AddOrderComponent</title>
<polygon fill="#ffffb3" stroke="#000000" points="2506.0814,-122 2367.9186,-122 2367.9186,-86 2506.0814,-86 2506.0814,-122"/>
<text text-anchor="middle" x="2437" y="-99.8" font-family="Times,serif" font-size="14.00" fill="#000000">AddOrderComponent</text>
</g>
<!-- OrdersModule -->
<g id="node20" class="node">
<title>OrdersModule</title>
<polygon fill="#8dd3c7" stroke="#000000" points="2250.6375,-198 2247.6375,-202 2226.6375,-202 2223.6375,-198 2153.3625,-198 2153.3625,-162 2250.6375,-162 2250.6375,-198"/>
<text text-anchor="middle" x="2202" y="-175.8" font-family="Times,serif" font-size="14.00" fill="#000000">OrdersModule</text>
</g>
<!-- AddOrderComponent&#45;&gt;OrdersModule -->
<g id="edge15" class="edge">
<title>AddOrderComponent&#45;&gt;OrdersModule</title>
<path fill="none" stroke="#000000" d="M2437,-122.0109C2437,-144.4852 2437,-180 2437,-180 2437,-180 2260.6922,-180 2260.6922,-180"/>
<polygon fill="#000000" stroke="#000000" points="2260.6922,-176.5001 2250.6922,-180 2260.6921,-183.5001 2260.6922,-176.5001"/>
</g>
<!-- EditOrderComponent -->
<g id="node18" class="node">
<title>EditOrderComponent</title>
<polygon fill="#ffffb3" stroke="#000000" points="2349.8089,-122 2212.1911,-122 2212.1911,-86 2349.8089,-86 2349.8089,-122"/>
<text text-anchor="middle" x="2281" y="-99.8" font-family="Times,serif" font-size="14.00" fill="#000000">EditOrderComponent</text>
</g>
<!-- EditOrderComponent&#45;&gt;OrdersModule -->
<g id="edge16" class="edge">
<title>EditOrderComponent&#45;&gt;OrdersModule</title>
<path fill="none" stroke="#000000" d="M2231.5821,-122.0109C2231.5821,-122.0109 2231.5821,-151.855 2231.5821,-151.855"/>
<polygon fill="#000000" stroke="#000000" points="2228.0821,-151.8549 2231.5821,-161.855 2235.0821,-151.855 2228.0821,-151.8549"/>
</g>
<!-- ListOrdersComponent -->
<g id="node19" class="node">
<title>ListOrdersComponent</title>
<polygon fill="#ffffb3" stroke="#000000" points="2194.6979,-122 2053.3021,-122 2053.3021,-86 2194.6979,-86 2194.6979,-122"/>
<text text-anchor="middle" x="2124" y="-99.8" font-family="Times,serif" font-size="14.00" fill="#000000">ListOrdersComponent</text>
</g>
<!-- ListOrdersComponent&#45;&gt;OrdersModule -->
<g id="edge17" class="edge">
<title>ListOrdersComponent&#45;&gt;OrdersModule</title>
<path fill="none" stroke="#000000" d="M2173.8903,-122.0109C2173.8903,-122.0109 2173.8903,-151.855 2173.8903,-151.855"/>
<polygon fill="#000000" stroke="#000000" points="2170.3903,-151.8549 2173.8903,-161.855 2177.3903,-151.855 2170.3903,-151.8549"/>
</g>
<!-- OrdersRoutingModule -->
<g id="node21" class="node">
<title>OrdersRoutingModule</title>
<polygon fill="#8dd3c7" stroke="#000000" points="2029.2548,-122 2026.2548,-126 2005.2548,-126 2002.2548,-122 1886.7452,-122 1886.7452,-86 2029.2548,-86 2029.2548,-122"/>
<text text-anchor="middle" x="1958" y="-99.8" font-family="Times,serif" font-size="14.00" fill="#000000">OrdersRoutingModule</text>
</g>
<!-- OrdersRoutingModule&#45;&gt;OrdersModule -->
<g id="edge18" class="edge">
<title>OrdersRoutingModule&#45;&gt;OrdersModule</title>
<path fill="none" stroke="#000000" d="M1958,-122.0267C1958,-142.7672 1958,-174 1958,-174 1958,-174 2143.2094,-174 2143.2094,-174"/>
<polygon fill="#000000" stroke="#000000" points="2143.2094,-177.5001 2153.2094,-174 2143.2094,-170.5001 2143.2094,-177.5001"/>
</g>
<!-- PageNotFoundComponent -->
<g id="node22" class="node">
<title>PageNotFoundComponent</title>
<polygon fill="#ffffb3" stroke="#000000" points="2923.8243,-122 2758.1757,-122 2758.1757,-86 2923.8243,-86 2923.8243,-122"/>
<text text-anchor="middle" x="2841" y="-99.8" font-family="Times,serif" font-size="14.00" fill="#000000">PageNotFoundComponent</text>
</g>
<!-- PageNotFoundModule -->
<g id="node23" class="node">
<title>PageNotFoundModule</title>
<polygon fill="#8dd3c7" stroke="#000000" points="2811.5421,-198 2808.5421,-202 2787.5421,-202 2784.5421,-198 2668.4579,-198 2668.4579,-162 2811.5421,-162 2811.5421,-198"/>
<text text-anchor="middle" x="2740" y="-175.8" font-family="Times,serif" font-size="14.00" fill="#000000">PageNotFoundModule</text>
</g>
<!-- PageNotFoundComponent&#45;&gt;PageNotFoundModule -->
<g id="edge19" class="edge">
<title>PageNotFoundComponent&#45;&gt;PageNotFoundModule</title>
<path fill="none" stroke="#000000" d="M2785.0544,-122.0109C2785.0544,-122.0109 2785.0544,-151.855 2785.0544,-151.855"/>
<polygon fill="#000000" stroke="#000000" points="2781.5544,-151.8549 2785.0544,-161.855 2788.5544,-151.855 2781.5544,-151.8549"/>
</g>
<!-- PageNotFoundRoutingModule -->
<g id="node24" class="node">
<title>PageNotFoundRoutingModule</title>
<polygon fill="#8dd3c7" stroke="#000000" points="2734.1595,-122 2731.1595,-126 2710.1595,-126 2707.1595,-122 2545.8405,-122 2545.8405,-86 2734.1595,-86 2734.1595,-122"/>
<text text-anchor="middle" x="2640" y="-99.8" font-family="Times,serif" font-size="14.00" fill="#000000">PageNotFoundRoutingModule</text>
</g>
<!-- PageNotFoundRoutingModule&#45;&gt;PageNotFoundModule -->
<g id="edge20" class="edge">
<title>PageNotFoundRoutingModule&#45;&gt;PageNotFoundModule</title>
<path fill="none" stroke="#000000" d="M2701.2795,-122.0109C2701.2795,-122.0109 2701.2795,-151.855 2701.2795,-151.855"/>
<polygon fill="#000000" stroke="#000000" points="2697.7795,-151.8549 2701.2795,-161.855 2704.7795,-151.855 2697.7795,-151.8549"/>
</g>
<!-- FooterComponent -->
<g id="node25" class="node">
<title>FooterComponent</title>
<polygon fill="#ffffb3" stroke="#000000" points="639.8809,-122 522.1191,-122 522.1191,-86 639.8809,-86 639.8809,-122"/>
<text text-anchor="middle" x="581" y="-99.8" font-family="Times,serif" font-size="14.00" fill="#000000">FooterComponent</text>
</g>
<!-- FooterComponent&#45;&gt;UiModule -->
<g id="edge21" class="edge">
<title>FooterComponent&#45;&gt;UiModule</title>
<path fill="none" stroke="#000000" d="M552.3317,-122.0439C552.3317,-134.5633 552.3317,-149 552.3317,-149 552.3317,-149 455.2578,-149 455.2578,-149 455.2578,-149 455.2578,-151.9672 455.2578,-151.9672"/>
<polygon fill="#000000" stroke="#000000" points="451.7579,-151.9671 455.2578,-161.9672 458.7579,-151.9672 451.7579,-151.9671"/>
</g>
<!-- HeaderComponent -->
<g id="node26" class="node">
<title>HeaderComponent</title>
<polygon fill="#ffffb3" stroke="#000000" points="503.7437,-122 382.2563,-122 382.2563,-86 503.7437,-86 503.7437,-122"/>
<text text-anchor="middle" x="443" y="-99.8" font-family="Times,serif" font-size="14.00" fill="#000000">HeaderComponent</text>
</g>
<!-- HeaderComponent&#45;&gt;UiModule -->
<g id="edge22" class="edge">
<title>HeaderComponent&#45;&gt;UiModule</title>
<path fill="none" stroke="#000000" d="M430.7422,-122.0109C430.7422,-122.0109 430.7422,-151.855 430.7422,-151.855"/>
<polygon fill="#000000" stroke="#000000" points="427.2423,-151.8549 430.7422,-161.855 434.2423,-151.855 427.2423,-151.8549"/>
</g>
<!-- NavComponent -->
<g id="node27" class="node">
<title>NavComponent</title>
<polygon fill="#ffffb3" stroke="#000000" points="364.1542,-122 259.8458,-122 259.8458,-86 364.1542,-86 364.1542,-122"/>
<text text-anchor="middle" x="312" y="-99.8" font-family="Times,serif" font-size="14.00" fill="#000000">NavComponent</text>
</g>
<!-- NavComponent&#45;&gt;UiModule -->
<g id="edge23" class="edge">
<title>NavComponent&#45;&gt;UiModule</title>
<path fill="none" stroke="#000000" d="M312,-122.308C312,-142.1455 312,-171 312,-171 312,-171 396.1606,-171 396.1606,-171"/>
<polygon fill="#000000" stroke="#000000" points="396.1606,-174.5001 406.1606,-171 396.1605,-167.5001 396.1606,-174.5001"/>
</g>
<!-- UiComponent -->
<g id="node28" class="node">
<title>UiComponent</title>
<polygon fill="#ffffb3" stroke="#000000" points="241.8302,-122 146.1698,-122 146.1698,-86 241.8302,-86 241.8302,-122"/>
<text text-anchor="middle" x="194" y="-99.8" font-family="Times,serif" font-size="14.00" fill="#000000">UiComponent</text>
</g>
<!-- UiComponent&#45;&gt;UiModule -->
<g id="edge24" class="edge">
<title>UiComponent&#45;&gt;UiModule</title>
<path fill="none" stroke="#000000" d="M194,-122.0109C194,-144.4852 194,-180 194,-180 194,-180 396.2592,-180 396.2592,-180"/>
<polygon fill="#000000" stroke="#000000" points="396.2592,-183.5001 406.2592,-180 396.2592,-176.5001 396.2592,-183.5001"/>
</g>
</g>
</svg>
